<mxfile host="app.diagrams.net" modified="2023-12-06T17:11:32.179Z" agent="Mozilla/5.0 (Windows NT 10.0; Win64; x64) AppleWebKit/537.36 (KHTML, like Gecko) Chrome/119.0.0.0 Safari/537.36" etag="r_SIogIaavgAEG2W2fiA" version="22.1.6" type="device">
  <diagram name="Page-1" id="j0ypjppqDU0BBYaaAZ5z">
    <mxGraphModel dx="1434" dy="750" grid="1" gridSize="10" guides="1" tooltips="1" connect="1" arrows="1" fold="1" page="1" pageScale="1" pageWidth="850" pageHeight="1100" math="0" shadow="0">
      <root>
        <mxCell id="0" />
        <mxCell id="1" parent="0" />
        <mxCell id="8qBAjIgAd5Vfwt2U9NI6-1" value="" style="rounded=0;whiteSpace=wrap;html=1;opacity=50;fillColor=#CCFFE6;" vertex="1" parent="1">
          <mxGeometry x="80" y="40" width="720" height="930" as="geometry" />
        </mxCell>
        <mxCell id="8qBAjIgAd5Vfwt2U9NI6-65" value="" style="group" vertex="1" connectable="0" parent="1">
          <mxGeometry x="90" y="190" width="700" height="650" as="geometry" />
        </mxCell>
        <mxCell id="8qBAjIgAd5Vfwt2U9NI6-6" value="" style="rounded=0;whiteSpace=wrap;html=1;fillColor=#FFFFCC;" vertex="1" parent="8qBAjIgAd5Vfwt2U9NI6-65">
          <mxGeometry width="700" height="650" as="geometry" />
        </mxCell>
        <mxCell id="8qBAjIgAd5Vfwt2U9NI6-7" value="&lt;pre&gt;&lt;i&gt;AppBody Section&lt;/i&gt;&lt;/pre&gt;" style="text;html=1;strokeColor=none;fillColor=none;align=left;verticalAlign=middle;whiteSpace=wrap;rounded=0;" vertex="1" parent="8qBAjIgAd5Vfwt2U9NI6-65">
          <mxGeometry x="3" width="130" height="25" as="geometry" />
        </mxCell>
        <mxCell id="8qBAjIgAd5Vfwt2U9NI6-11" value="" style="rounded=0;whiteSpace=wrap;html=1;fillColor=#E6FFCC;" vertex="1" parent="1">
          <mxGeometry x="99" y="380" width="682" height="450" as="geometry" />
        </mxCell>
        <mxCell id="8qBAjIgAd5Vfwt2U9NI6-12" value="&lt;pre&gt;&lt;i&gt;DataBox Section&lt;/i&gt;&lt;/pre&gt;" style="text;html=1;strokeColor=none;fillColor=none;align=left;verticalAlign=middle;whiteSpace=wrap;rounded=0;" vertex="1" parent="1">
          <mxGeometry x="104" y="385" width="130" height="20" as="geometry" />
        </mxCell>
        <mxCell id="8qBAjIgAd5Vfwt2U9NI6-14" value="&lt;font style=&quot;font-size: 15px;&quot;&gt;&lt;b&gt;Fetched ## Words&lt;/b&gt;&lt;/font&gt;" style="text;html=1;strokeColor=none;fillColor=none;align=center;verticalAlign=middle;whiteSpace=wrap;rounded=0;" vertex="1" parent="1">
          <mxGeometry x="367.5" y="540" width="145" height="30" as="geometry" />
        </mxCell>
        <mxCell id="8qBAjIgAd5Vfwt2U9NI6-51" value="&lt;font style=&quot;font-size: 10px;&quot;&gt;&lt;i&gt;Section will automatically adjust based on the number of fetched items&lt;/i&gt;&lt;/font&gt;" style="text;html=1;strokeColor=none;fillColor=none;align=center;verticalAlign=middle;whiteSpace=wrap;rounded=0;" vertex="1" parent="1">
          <mxGeometry x="247.5" y="730" width="385" height="30" as="geometry" />
        </mxCell>
        <mxCell id="8qBAjIgAd5Vfwt2U9NI6-53" value="" style="group" vertex="1" connectable="0" parent="1">
          <mxGeometry x="233" y="590" width="416" height="130" as="geometry" />
        </mxCell>
        <mxCell id="8qBAjIgAd5Vfwt2U9NI6-19" value="" style="group" vertex="1" connectable="0" parent="8qBAjIgAd5Vfwt2U9NI6-53">
          <mxGeometry width="120" height="60" as="geometry" />
        </mxCell>
        <mxCell id="8qBAjIgAd5Vfwt2U9NI6-16" value="" style="rounded=1;whiteSpace=wrap;html=1;" vertex="1" parent="8qBAjIgAd5Vfwt2U9NI6-19">
          <mxGeometry width="120" height="60" as="geometry" />
        </mxCell>
        <mxCell id="8qBAjIgAd5Vfwt2U9NI6-17" value="Matched Word" style="text;html=1;strokeColor=none;fillColor=none;align=center;verticalAlign=middle;whiteSpace=wrap;rounded=0;" vertex="1" parent="8qBAjIgAd5Vfwt2U9NI6-19">
          <mxGeometry x="20" y="10" width="80" height="20" as="geometry" />
        </mxCell>
        <mxCell id="8qBAjIgAd5Vfwt2U9NI6-18" value="Score" style="text;html=1;strokeColor=none;fillColor=none;align=center;verticalAlign=middle;whiteSpace=wrap;rounded=0;" vertex="1" parent="8qBAjIgAd5Vfwt2U9NI6-19">
          <mxGeometry x="20" y="30" width="80" height="20" as="geometry" />
        </mxCell>
        <mxCell id="8qBAjIgAd5Vfwt2U9NI6-20" value="" style="group" vertex="1" connectable="0" parent="8qBAjIgAd5Vfwt2U9NI6-53">
          <mxGeometry x="148" width="120" height="60" as="geometry" />
        </mxCell>
        <mxCell id="8qBAjIgAd5Vfwt2U9NI6-21" value="" style="rounded=1;whiteSpace=wrap;html=1;" vertex="1" parent="8qBAjIgAd5Vfwt2U9NI6-20">
          <mxGeometry width="120" height="60" as="geometry" />
        </mxCell>
        <mxCell id="8qBAjIgAd5Vfwt2U9NI6-22" value="Matched Word" style="text;html=1;strokeColor=none;fillColor=none;align=center;verticalAlign=middle;whiteSpace=wrap;rounded=0;" vertex="1" parent="8qBAjIgAd5Vfwt2U9NI6-20">
          <mxGeometry x="20" y="10" width="80" height="20" as="geometry" />
        </mxCell>
        <mxCell id="8qBAjIgAd5Vfwt2U9NI6-23" value="Score" style="text;html=1;strokeColor=none;fillColor=none;align=center;verticalAlign=middle;whiteSpace=wrap;rounded=0;" vertex="1" parent="8qBAjIgAd5Vfwt2U9NI6-20">
          <mxGeometry x="20" y="30" width="80" height="20" as="geometry" />
        </mxCell>
        <mxCell id="8qBAjIgAd5Vfwt2U9NI6-25" value="" style="group" vertex="1" connectable="0" parent="8qBAjIgAd5Vfwt2U9NI6-53">
          <mxGeometry x="296" width="120" height="60" as="geometry" />
        </mxCell>
        <mxCell id="8qBAjIgAd5Vfwt2U9NI6-26" value="" style="rounded=1;whiteSpace=wrap;html=1;" vertex="1" parent="8qBAjIgAd5Vfwt2U9NI6-25">
          <mxGeometry width="120" height="60" as="geometry" />
        </mxCell>
        <mxCell id="8qBAjIgAd5Vfwt2U9NI6-27" value="Matched Word" style="text;html=1;strokeColor=none;fillColor=none;align=center;verticalAlign=middle;whiteSpace=wrap;rounded=0;" vertex="1" parent="8qBAjIgAd5Vfwt2U9NI6-25">
          <mxGeometry x="20" y="10" width="80" height="20" as="geometry" />
        </mxCell>
        <mxCell id="8qBAjIgAd5Vfwt2U9NI6-28" value="Score" style="text;html=1;strokeColor=none;fillColor=none;align=center;verticalAlign=middle;whiteSpace=wrap;rounded=0;" vertex="1" parent="8qBAjIgAd5Vfwt2U9NI6-25">
          <mxGeometry x="20" y="30" width="80" height="20" as="geometry" />
        </mxCell>
        <mxCell id="8qBAjIgAd5Vfwt2U9NI6-33" value="" style="group" vertex="1" connectable="0" parent="8qBAjIgAd5Vfwt2U9NI6-53">
          <mxGeometry y="70" width="120" height="60" as="geometry" />
        </mxCell>
        <mxCell id="8qBAjIgAd5Vfwt2U9NI6-34" value="" style="rounded=1;whiteSpace=wrap;html=1;" vertex="1" parent="8qBAjIgAd5Vfwt2U9NI6-33">
          <mxGeometry width="120" height="60" as="geometry" />
        </mxCell>
        <mxCell id="8qBAjIgAd5Vfwt2U9NI6-35" value="Matched Word" style="text;html=1;strokeColor=none;fillColor=none;align=center;verticalAlign=middle;whiteSpace=wrap;rounded=0;" vertex="1" parent="8qBAjIgAd5Vfwt2U9NI6-33">
          <mxGeometry x="20" y="10" width="80" height="20" as="geometry" />
        </mxCell>
        <mxCell id="8qBAjIgAd5Vfwt2U9NI6-36" value="Score" style="text;html=1;strokeColor=none;fillColor=none;align=center;verticalAlign=middle;whiteSpace=wrap;rounded=0;" vertex="1" parent="8qBAjIgAd5Vfwt2U9NI6-33">
          <mxGeometry x="20" y="30" width="80" height="20" as="geometry" />
        </mxCell>
        <mxCell id="8qBAjIgAd5Vfwt2U9NI6-37" value="" style="group" vertex="1" connectable="0" parent="8qBAjIgAd5Vfwt2U9NI6-53">
          <mxGeometry x="148" y="70" width="120" height="60" as="geometry" />
        </mxCell>
        <mxCell id="8qBAjIgAd5Vfwt2U9NI6-38" value="" style="rounded=1;whiteSpace=wrap;html=1;" vertex="1" parent="8qBAjIgAd5Vfwt2U9NI6-37">
          <mxGeometry width="120" height="60" as="geometry" />
        </mxCell>
        <mxCell id="8qBAjIgAd5Vfwt2U9NI6-39" value="Matched Word" style="text;html=1;strokeColor=none;fillColor=none;align=center;verticalAlign=middle;whiteSpace=wrap;rounded=0;" vertex="1" parent="8qBAjIgAd5Vfwt2U9NI6-37">
          <mxGeometry x="20" y="10" width="80" height="20" as="geometry" />
        </mxCell>
        <mxCell id="8qBAjIgAd5Vfwt2U9NI6-40" value="Score" style="text;html=1;strokeColor=none;fillColor=none;align=center;verticalAlign=middle;whiteSpace=wrap;rounded=0;" vertex="1" parent="8qBAjIgAd5Vfwt2U9NI6-37">
          <mxGeometry x="20" y="30" width="80" height="20" as="geometry" />
        </mxCell>
        <mxCell id="8qBAjIgAd5Vfwt2U9NI6-50" value="" style="shape=flexArrow;endArrow=classic;html=1;rounded=0;endWidth=17;endSize=9.33;" edge="1" parent="8qBAjIgAd5Vfwt2U9NI6-37">
          <mxGeometry width="50" height="50" relative="1" as="geometry">
            <mxPoint x="59" y="100" as="sourcePoint" />
            <mxPoint x="58.98000000000002" y="159.01" as="targetPoint" />
          </mxGeometry>
        </mxCell>
        <mxCell id="8qBAjIgAd5Vfwt2U9NI6-41" value="" style="group" vertex="1" connectable="0" parent="8qBAjIgAd5Vfwt2U9NI6-53">
          <mxGeometry x="296" y="70" width="120" height="60" as="geometry" />
        </mxCell>
        <mxCell id="8qBAjIgAd5Vfwt2U9NI6-42" value="" style="rounded=1;whiteSpace=wrap;html=1;" vertex="1" parent="8qBAjIgAd5Vfwt2U9NI6-41">
          <mxGeometry width="120" height="60" as="geometry" />
        </mxCell>
        <mxCell id="8qBAjIgAd5Vfwt2U9NI6-43" value="Matched Word" style="text;html=1;strokeColor=none;fillColor=none;align=center;verticalAlign=middle;whiteSpace=wrap;rounded=0;" vertex="1" parent="8qBAjIgAd5Vfwt2U9NI6-41">
          <mxGeometry x="20" y="10" width="80" height="20" as="geometry" />
        </mxCell>
        <mxCell id="8qBAjIgAd5Vfwt2U9NI6-44" value="Score" style="text;html=1;strokeColor=none;fillColor=none;align=center;verticalAlign=middle;whiteSpace=wrap;rounded=0;" vertex="1" parent="8qBAjIgAd5Vfwt2U9NI6-41">
          <mxGeometry x="20" y="30" width="80" height="20" as="geometry" />
        </mxCell>
        <mxCell id="8qBAjIgAd5Vfwt2U9NI6-61" value="" style="group" vertex="1" connectable="0" parent="1">
          <mxGeometry x="90" y="850" width="700" height="110" as="geometry" />
        </mxCell>
        <mxCell id="8qBAjIgAd5Vfwt2U9NI6-46" value="" style="rounded=0;whiteSpace=wrap;html=1;fillColor=#FFFFCC;" vertex="1" parent="8qBAjIgAd5Vfwt2U9NI6-61">
          <mxGeometry width="700" height="110" as="geometry" />
        </mxCell>
        <mxCell id="8qBAjIgAd5Vfwt2U9NI6-47" value="&lt;pre&gt;&lt;i&gt;AppFooter Section&lt;/i&gt;&lt;/pre&gt;" style="text;html=1;strokeColor=none;fillColor=none;align=left;verticalAlign=middle;whiteSpace=wrap;rounded=0;" vertex="1" parent="8qBAjIgAd5Vfwt2U9NI6-61">
          <mxGeometry x="3" width="130" height="20" as="geometry" />
        </mxCell>
        <mxCell id="8qBAjIgAd5Vfwt2U9NI6-48" value="&lt;font style=&quot;font-size: 15px;&quot;&gt;Copyright (C) 2023&lt;/font&gt;" style="text;html=1;strokeColor=none;fillColor=none;align=center;verticalAlign=middle;whiteSpace=wrap;rounded=0;fontSize=20;" vertex="1" parent="8qBAjIgAd5Vfwt2U9NI6-61">
          <mxGeometry x="220" y="20" width="260" height="30" as="geometry" />
        </mxCell>
        <mxCell id="8qBAjIgAd5Vfwt2U9NI6-49" value="&lt;font style=&quot;font-size: 13px;&quot;&gt;All data sourced from the Datamuse API&lt;/font&gt;" style="text;html=1;strokeColor=none;fillColor=none;align=center;verticalAlign=middle;whiteSpace=wrap;rounded=0;fontSize=20;" vertex="1" parent="8qBAjIgAd5Vfwt2U9NI6-61">
          <mxGeometry x="220" y="50" width="260" height="30" as="geometry" />
        </mxCell>
        <mxCell id="8qBAjIgAd5Vfwt2U9NI6-62" value="" style="group" vertex="1" connectable="0" parent="1">
          <mxGeometry x="90" y="50" width="700" height="130" as="geometry" />
        </mxCell>
        <mxCell id="8qBAjIgAd5Vfwt2U9NI6-3" value="" style="rounded=0;whiteSpace=wrap;html=1;fillColor=#FFFFCC;" vertex="1" parent="8qBAjIgAd5Vfwt2U9NI6-62">
          <mxGeometry width="700" height="130" as="geometry" />
        </mxCell>
        <mxCell id="8qBAjIgAd5Vfwt2U9NI6-4" value="&lt;pre&gt;&lt;i&gt;AppHeader Section&lt;/i&gt;&lt;/pre&gt;" style="text;html=1;strokeColor=none;fillColor=none;align=left;verticalAlign=middle;whiteSpace=wrap;rounded=0;" vertex="1" parent="8qBAjIgAd5Vfwt2U9NI6-62">
          <mxGeometry x="3" width="130" height="20" as="geometry" />
        </mxCell>
        <mxCell id="8qBAjIgAd5Vfwt2U9NI6-2" value="&lt;b&gt;Words, Words, and Words&lt;/b&gt;" style="text;html=1;strokeColor=none;fillColor=none;align=center;verticalAlign=middle;whiteSpace=wrap;rounded=0;fontSize=20;" vertex="1" parent="8qBAjIgAd5Vfwt2U9NI6-62">
          <mxGeometry x="220" y="30" width="260" height="30" as="geometry" />
        </mxCell>
        <mxCell id="8qBAjIgAd5Vfwt2U9NI6-5" value="&lt;font style=&quot;font-size: 17px;&quot;&gt;Written by Justin Pelletier&lt;/font&gt;" style="text;html=1;strokeColor=none;fillColor=none;align=center;verticalAlign=middle;whiteSpace=wrap;rounded=0;fontSize=20;" vertex="1" parent="8qBAjIgAd5Vfwt2U9NI6-62">
          <mxGeometry x="220" y="70" width="260" height="30" as="geometry" />
        </mxCell>
        <mxCell id="8qBAjIgAd5Vfwt2U9NI6-63" value="" style="group" vertex="1" connectable="0" parent="1">
          <mxGeometry x="99" y="220" width="682" height="150" as="geometry" />
        </mxCell>
        <mxCell id="8qBAjIgAd5Vfwt2U9NI6-8" value="" style="rounded=0;whiteSpace=wrap;html=1;fillColor=#E6FFCC;" vertex="1" parent="8qBAjIgAd5Vfwt2U9NI6-63">
          <mxGeometry width="682" height="150" as="geometry" />
        </mxCell>
        <mxCell id="8qBAjIgAd5Vfwt2U9NI6-10" value="&lt;pre&gt;&lt;i&gt;FetchConfigurator Section&lt;/i&gt;&lt;/pre&gt;" style="text;html=1;strokeColor=none;fillColor=none;align=left;verticalAlign=middle;whiteSpace=wrap;rounded=0;" vertex="1" parent="8qBAjIgAd5Vfwt2U9NI6-63">
          <mxGeometry x="5" width="130" height="20" as="geometry" />
        </mxCell>
        <mxCell id="8qBAjIgAd5Vfwt2U9NI6-15" value="&lt;font style=&quot;font-size: 15px;&quot;&gt;&lt;b&gt;Fetch Configurator&lt;/b&gt;&lt;/font&gt;" style="text;html=1;strokeColor=none;fillColor=none;align=center;verticalAlign=middle;whiteSpace=wrap;rounded=0;" vertex="1" parent="8qBAjIgAd5Vfwt2U9NI6-63">
          <mxGeometry x="253.5" y="20" width="175" height="30" as="geometry" />
        </mxCell>
        <mxCell id="8qBAjIgAd5Vfwt2U9NI6-60" value="" style="group" vertex="1" connectable="0" parent="8qBAjIgAd5Vfwt2U9NI6-63">
          <mxGeometry x="96" y="60" width="460" height="60" as="geometry" />
        </mxCell>
        <mxCell id="8qBAjIgAd5Vfwt2U9NI6-54" value="" style="rounded=1;whiteSpace=wrap;html=1;" vertex="1" parent="8qBAjIgAd5Vfwt2U9NI6-60">
          <mxGeometry width="210" height="60" as="geometry" />
        </mxCell>
        <mxCell id="8qBAjIgAd5Vfwt2U9NI6-55" value="Word Input" style="text;html=1;strokeColor=none;fillColor=none;align=center;verticalAlign=middle;whiteSpace=wrap;rounded=0;" vertex="1" parent="8qBAjIgAd5Vfwt2U9NI6-60">
          <mxGeometry x="20" y="15" width="120" height="30" as="geometry" />
        </mxCell>
        <mxCell id="8qBAjIgAd5Vfwt2U9NI6-58" value="" style="rounded=1;whiteSpace=wrap;html=1;fillColor=#E6E6E6;" vertex="1" parent="8qBAjIgAd5Vfwt2U9NI6-60">
          <mxGeometry x="325" width="135" height="60" as="geometry" />
        </mxCell>
        <mxCell id="8qBAjIgAd5Vfwt2U9NI6-59" value="Generate Button" style="text;html=1;strokeColor=none;fillColor=none;align=center;verticalAlign=middle;whiteSpace=wrap;rounded=0;" vertex="1" parent="8qBAjIgAd5Vfwt2U9NI6-60">
          <mxGeometry x="338.5" y="15" width="115" height="30" as="geometry" />
        </mxCell>
        <mxCell id="8qBAjIgAd5Vfwt2U9NI6-56" value="" style="rounded=0;whiteSpace=wrap;html=1;" vertex="1" parent="8qBAjIgAd5Vfwt2U9NI6-60">
          <mxGeometry x="160" width="170" height="60" as="geometry" />
        </mxCell>
        <mxCell id="8qBAjIgAd5Vfwt2U9NI6-57" value="Word Category" style="text;html=1;strokeColor=none;fillColor=none;align=center;verticalAlign=middle;whiteSpace=wrap;rounded=0;" vertex="1" parent="8qBAjIgAd5Vfwt2U9NI6-60">
          <mxGeometry x="187.5" y="15" width="120" height="30" as="geometry" />
        </mxCell>
        <mxCell id="8qBAjIgAd5Vfwt2U9NI6-66" value="&lt;font style=&quot;font-size: 15px;&quot;&gt;&lt;b&gt;Word Information&lt;/b&gt;&lt;/font&gt;" style="text;html=1;strokeColor=none;fillColor=none;align=center;verticalAlign=middle;whiteSpace=wrap;rounded=0;" vertex="1" parent="1">
          <mxGeometry x="367.5" y="405" width="145" height="30" as="geometry" />
        </mxCell>
      </root>
    </mxGraphModel>
  </diagram>
</mxfile>
